
-: Cover :- 
 
http://desibbrg.net/imghost/show.php?img=430593_Jawab.jpg.html 
http://desibbrg.net/imghost/show.php?img=430592_Jawabmovieposter.jpg.html

-: Screens :-
 
http://desibbrg.net/imghost/show.php?img=430603_Jawab.1955..DvDrip.1CD.X264.AAC.RRG.DADA.DBBIANS.Com.mkvsnapshot00.04.342013.03.3111.38.24.jpg.html 
http://desibbrg.net/imghost/show.php?img=430602_Jawab.1955..DvDrip.1CD.X264.AAC.RRG.DADA.DBBIANS.Com.mkvsnapshot00.13.052013.03.3111.40.24.jpg.html 
http://desibbrg.net/imghost/show.php?img=430599_Jawab.1955..DvDrip.1CD.X264.AAC.RRG.DADA.DBBIANS.Com.mkvsnapshot00.41.142013.03.3111.47.32.jpg.html 
http://desibbrg.net/imghost/show.php?img=430598_Jawab.1955..DvDrip.1CD.X264.AAC.RRG.DADA.DBBIANS.Com.mkvsnapshot00.50.552013.03.3111.48.01.jpg.html 
http://desibbrg.net/imghost/show.php?img=430596_Jawab.1955..DvDrip.1CD.X264.AAC.RRG.DADA.DBBIANS.Com.mkvsnapshot01.09.102013.03.3111.49.23.jpg.html 
http://desibbrg.net/imghost/show.php?img=430594_Jawab.1955..DvDrip.1CD.X264.AAC.RRG.DADA.DBBIANS.Com.mkvsnapshot01.45.232013.03.3111.52.50.jpg.html 
http://desibbrg.net/imghost/show.php?img=430591_Jawab.1955..DvDrip.1CD.X264.AAC.RRG.DADA.DBBIANS.Com.mkvthumbs2013.03.3111.22.39.jpg.html





-: Info :-  

General

Format                           : MP4 Video
File size                        : 818 MiB
Duration                         : 1h 54mn
Overall bit rate                 : 999 Kbps

Video
Format                           : AVC
Format/Info                      : Advanced Video Codec
Format profile                   : Main@L3.0
Format settings, CABAC           : Yes
Format settings, ReFrames        : 3 frames
Muxing mode                      : Container profile=Unknown@3.0
Duration                         : 1h 54mn
Bit rate                         : 862 Kbps
Width                            : 656 pixels
Height                           : 480 pixels
Display aspect ratio             : 4:3
Frame rate mode                  : Constant
Frame rate                       : 25.000 fps
Color space                      : YUV
Chroma subsampling               : 4:2:0
Bit depth                        : 8 bits
Scan type                        : Progressive
Bits/(Pixel*Frame)               : 0.109
Stream size                      : 706 MiB (86%)

Audio
Format                           : AAC
Format/Info                      : Advanced Audio Codec
Format version                   : Version 4
Format profile                   : LC
Format settings, SBR             : No
Duration                         : 1h 54mn
Bit rate                         : 129 Kbps
Channel(s)                       : 2 channels
Channel positions                : Front: L R
Sampling rate                    : 44.1 KHz
Bit depth                        : 16 bits
Stream size                      : 105 MiB (13%)



 
http://www.imdb.com/title/tt2162651/



    Genres:
Comedy, Family, Indian Cinema
    Language:
Hindi
    Running time:
1:54:34

    Released:
Jan 5, 1955

Cast & Crew
Cast

    Geeta Bali
    Nasir Khan
    Johnny Walker
    Mukri
    Master Romi
    Balraj Sahni
    Ashraf Khan
    Arvind Kumar
    Shamim Choudhary

Directors

    Ismail Memon


An impoverished father faces challenges and disappointments when he decides to educate his only child 


